<!-- Generated by IcoMoon.io -->
<svg version="1.1" xmlns="http://www.w3.org/2000/svg" width="24" height="24" viewBox="0 0 24 24">
<title>search-normal-1</title>
<path d="M11.5 21.75c-5.65 0-10.25-4.6-10.25-10.25s4.6-10.25 10.25-10.25c5.65 0 10.25 4.6 10.25 10.25s-4.6 10.25-10.25 10.25zM11.5 2.75c-4.83 0-8.75 3.93-8.75 8.75s3.92 8.75 8.75 8.75c4.83 0 8.75-3.93 8.75-8.75s-3.92-8.75-8.75-8.75zM22 22.75c-0.19 0-0.38-0.070-0.53-0.22l-2-2c-0.29-0.29-0.29-0.77 0-1.060s0.77-0.29 1.060 0l2 2c0.29 0.29 0.29 0.77 0 1.060-0.15 0.15-0.34 0.22-0.53 0.22z"></path>
</svg>
