<svg aria-hidden="true" style="width:0;height:0;position:absolute;overflow:hidden" xmlns="http://www.w3.org/2000/svg"><defs><symbol id="icon-warning" viewBox="0 0 24 24"><path d="M12.984 14.016V9.985h-1.969v4.031h1.969zm0 3.984v-2.016h-1.969V18h1.969zm-12 3L12 2.016 23.016 21H.985z"/></symbol><symbol id="icon-add" viewBox="0 0 24 24"><path d="M18.984 12.984h-6v6h-1.969v-6h-6v-1.969h6v-6h1.969v6h6v1.969z"/></symbol><symbol id="icon-create" viewBox="0 0 24 24"><path d="m20.719 7.031-1.828 1.828-3.75-3.75 1.828-1.828Q17.25 3 17.672 3t.703.281l2.344 2.344q.281.281.281.703t-.281.703zM3 17.25 14.063 6.187l3.75 3.75L6.75 21H3v-3.75z"/></symbol><symbol id="icon-format_bold" viewBox="0 0 24 24"><path d="M13.5 15.516q.656 0 1.078-.445T15 14.016t-.422-1.055-1.078-.445H9.984v3H13.5zm-3.516-9v3h3q.609 0 1.055-.445t.445-1.055-.445-1.055-1.055-.445h-3zm5.625 4.265q2.156.984 2.156 3.422 0 1.594-1.055 2.695T14.062 18H6.984V3.984h6.281q1.688 0 2.836 1.172t1.148 2.859-1.641 2.766z"/></symbol><symbol id="icon-format_italic" viewBox="0 0 24 24"><path d="M9.984 3.984H18v3h-2.813L11.812 15h2.203v3H5.999v-3h2.813l3.375-8.016H9.984v-3z"/></symbol><symbol id="icon-format_paint" viewBox="0 0 24 24"><path d="M18 3.984h3V12h-8.016v9q0 .422-.281.703t-.703.281H9.984q-.422 0-.703-.281T9 21V9.984h9.984V6H18v.984q0 .422-.281.727t-.703.305h-12q-.422 0-.727-.305t-.305-.727V3q0-.422.305-.703t.727-.281h12q.422 0 .703.281T18 3v.984z"/></symbol><symbol id="icon-format_underlined" viewBox="0 0 24 24"><path d="M5.016 18.984h13.969V21H5.016v-2.016zM12 17.016q-2.484 0-4.242-1.758T6 11.016V3h2.484v8.016q0 1.453 1.031 2.461t2.484 1.008 2.484-1.008 1.031-2.461V3h2.484v8.016q0 2.484-1.758 4.242t-4.242 1.758z"/></symbol><symbol id="icon-star" viewBox="0 0 24 24"><path d="M12 17.25 5.812 21l1.641-7.031-5.438-4.734 7.172-.609L12 2.017l2.813 6.609 7.172.609-5.438 4.734L18.188 21z"/></symbol><symbol id="icon-bookmark" viewBox="0 0 24 24"><path d="M17.016 3q.797 0 1.383.609t.586 1.406v15.984l-6.984-3-6.984 3V5.015q0-.797.586-1.406T6.986 3h10.031z"/></symbol><symbol id="icon-delete" viewBox="0 0 24 24"><path d="M18.984 3.984V6H5.015V3.984h3.469L9.515 3h4.969l1.031.984h3.469zM6 18.984v-12h12v12q0 .797-.609 1.406t-1.406.609H8.016q-.797 0-1.406-.609t-.609-1.406z"/></symbol><symbol id="icon-favorite" viewBox="0 0 24 24"><path d="m12 21.328-1.453-1.313q-2.484-2.25-3.609-3.328T4.43 14.015t-1.898-2.883-.516-2.648q0-2.297 1.57-3.891T7.5 2.999q2.719 0 4.5 2.109 1.781-2.109 4.5-2.109 2.344 0 3.914 1.594t1.57 3.891q0 1.828-1.219 3.797t-2.648 3.422-4.664 4.359z"/></symbol><symbol id="icon-translate" viewBox="0 0 24 24"><path d="M15.891 17.016h3.234l-1.641-4.359zm2.625-7.032 4.5 12H21l-1.125-3h-4.734l-1.125 3H12l4.5-12h2.016zm-5.625 5.063-.797 2.063L9 14.016l-5.016 4.969-1.406-1.406 5.109-5.016q-1.875-2.063-3-4.547h2.016Q7.687 9.891 9 11.344 11.156 8.953 12.188 6H.985V3.984h7.031V2.015h1.969v1.969h7.031V6h-2.953q-.469 1.5-1.547 3.398t-2.156 3.117l-.047.047z"/></symbol><symbol id="icon-search-normal-1" viewBox="0 0 24 24"><path d="M11.5 21.75c-5.65 0-10.25-4.6-10.25-10.25S5.85 1.25 11.5 1.25s10.25 4.6 10.25 10.25-4.6 10.25-10.25 10.25zm0-19c-4.83 0-8.75 3.93-8.75 8.75s3.92 8.75 8.75 8.75 8.75-3.93 8.75-8.75-3.92-8.75-8.75-8.75zm10.5 20c-.19 0-.38-.07-.53-.22l-2-2c-.29-.29-.29-.77 0-1.06s.77-.29 1.06 0l2 2c.29.29.29.77 0 1.06-.15.15-.34.22-.53.22z"/></symbol></defs></svg>